<svg width="256" height="256" viewBox="0 0 256 256" fill="none" xmlns="http://www.w3.org/2000/svg">
<path d="M128 60C139.598 60 149 50.598 149 39V29C149 17.402 139.598 8 128 8C116.402 8 107 17.402 107 29V39C107 50.598 116.402 60 128 60Z" fill="#C8A81E"/>
<path d="M149 29C149 40.598 139.598 50 128 50C116.402 50 107 40.598 107 29C107 17.402 116.402 8 128 8C139.598 8 149 17.402 149 29Z" fill="#F9F06B"/>
<path d="M30.6833 113.405L114.825 240.884C121.087 250.371 134.891 250.372 141.154 240.885L225.316 113.406C227.151 110.626 227.989 107.599 228 104.644L227.992 84.1855C227.989 75.2455 220.812 68 211.96 68H44.0326C35.178 68 28 75.2493 28 84.1917L28.0001 104.644C28.0106 107.598 28.8486 110.625 30.6833 113.405Z" fill="#BE9A00"/>
<path d="M30.6833 113.405L114.825 240.884C121.087 250.371 134.891 250.372 141.154 240.885L225.316 113.406C227.151 110.626 227.989 107.599 228 104.644L227.992 84.1855C227.989 75.2455 220.812 68 211.96 68H44.0326C35.178 68 28 75.2493 28 84.1917L28.0001 104.644C28.0106 107.598 28.8486 110.625 30.6833 113.405Z" fill="url(#paint0_linear_315_113)" fill-opacity="0.05"/>
<path d="M30.6834 93.2406L114.825 222.77C121.087 232.41 134.891 232.41 141.154 222.771L225.316 93.242C232.326 82.4527 224.789 68 212.152 68H43.8483C31.212 68 23.6746 82.4512 30.6834 93.2406Z" fill="url(#paint1_linear_315_113)"/>
<g filter="url(#filter0_i_315_113)">
<path d="M74 116L91.9363 98.5408C111.854 79.1531 144.146 79.1531 164.064 98.5408L182 116L164.064 133.459C144.146 152.847 111.854 152.847 91.9363 133.459L74 116Z" fill="#9141AC"/>
</g>
<g filter="url(#filter1_d_315_113)">
<path d="M144 116C144 124.837 136.837 132 128 132C119.163 132 112 124.837 112 116C112 107.163 119.163 100 128 100C136.837 100 144 107.163 144 116Z" fill="white"/>
</g>
<defs>
<filter id="filter0_i_315_113" x="74" y="84" width="108" height="64" filterUnits="userSpaceOnUse" color-interpolation-filters="sRGB">
<feFlood flood-opacity="0" result="BackgroundImageFix"/>
<feBlend mode="normal" in="SourceGraphic" in2="BackgroundImageFix" result="shape"/>
<feColorMatrix in="SourceAlpha" type="matrix" values="0 0 0 0 0 0 0 0 0 0 0 0 0 0 0 0 0 0 127 0" result="hardAlpha"/>
<feOffset dy="8"/>
<feComposite in2="hardAlpha" operator="arithmetic" k2="-1" k3="1"/>
<feColorMatrix type="matrix" values="0 0 0 0 0 0 0 0 0 0 0 0 0 0 0 0 0 0 0.25 0"/>
<feBlend mode="normal" in2="shape" result="effect1_innerShadow_315_113"/>
</filter>
<filter id="filter1_d_315_113" x="112" y="100" width="32" height="36" filterUnits="userSpaceOnUse" color-interpolation-filters="sRGB">
<feFlood flood-opacity="0" result="BackgroundImageFix"/>
<feColorMatrix in="SourceAlpha" type="matrix" values="0 0 0 0 0 0 0 0 0 0 0 0 0 0 0 0 0 0 127 0" result="hardAlpha"/>
<feOffset dy="4"/>
<feComposite in2="hardAlpha" operator="out"/>
<feColorMatrix type="matrix" values="0 0 0 0 0 0 0 0 0 0 0 0 0 0 0 0 0 0 0.25 0"/>
<feBlend mode="normal" in2="BackgroundImageFix" result="effect1_dropShadow_315_113"/>
<feBlend mode="normal" in="SourceGraphic" in2="effect1_dropShadow_315_113" result="shape"/>
</filter>
<linearGradient id="paint0_linear_315_113" x1="28" y1="68" x2="227.986" y2="68" gradientUnits="userSpaceOnUse">
<stop/>
<stop offset="0.500054" stop-color="white"/>
<stop offset="1"/>
</linearGradient>
<linearGradient id="paint1_linear_315_113" x1="128" y1="68" x2="124.442" y2="229.922" gradientUnits="userSpaceOnUse">
<stop stop-color="#F9F06B"/>
<stop offset="1" stop-color="#F5C211"/>
</linearGradient>
</defs>
</svg>
