<svg xmlns="http://www.w3.org/2000/svg" xmlns:xlink="http://www.w3.org/1999/xlink" width="128" height="128"><filter id="b" width="100%" height="100%" x="0%" y="0%"><feColorMatrix color-interpolation-filters="sRGB" values="0 0 0 0 1 0 0 0 0 1 0 0 0 0 1 0 0 0 1 0"/></filter><linearGradient id="e" x1="55" x2="73" y1="26.5" y2="26.5" gradientUnits="userSpaceOnUse"><stop offset="0" stop-color="#c09e0b"/><stop offset=".333" stop-color="#d9b20d"/><stop offset=".667" stop-color="#d9b20d"/><stop offset="1" stop-color="#c09e0b"/></linearGradient><linearGradient id="f" x1="8" x2="120" y1="124" y2="124" gradientUnits="userSpaceOnUse"><stop offset="0" stop-color="#9b7e00"/><stop offset=".04" stop-color="#c09e0b"/><stop offset=".422" stop-color="#c09e0b"/><stop offset=".5" stop-color="#e9c012"/><stop offset=".59" stop-color="#c09e0b"/><stop offset=".957" stop-color="#c09e0b"/><stop offset="1" stop-color="#9b7e00"/></linearGradient><linearGradient id="g" x1="64" x2="64" y1="28" y2="116" gradientUnits="userSpaceOnUse"><stop offset="0" stop-color="#f8e45c"/><stop offset=".5" stop-color="#f6d32d"/><stop offset="1" stop-color="#f5c211"/></linearGradient><linearGradient id="a" gradientUnits="userSpaceOnUse"><stop offset="0" stop-color="#593178"/><stop offset=".333" stop-color="#613583"/><stop offset=".667" stop-color="#613583"/><stop offset="1" stop-color="#593178"/></linearGradient><linearGradient xlink:href="#a" id="h" x1="36" x2="92" y1="58" y2="58"/><linearGradient xlink:href="#a" id="i" x1="56" x2="72" y1="68" y2="68"/><clipPath id="d"><path d="M0 0h128v128H0z"/></clipPath><clipPath id="c"><path d="M0 0h128v128H0z"/></clipPath><mask id="j"><g filter="url(#b)"><g clip-path="url(#c)" filter="url(#b)"><g clip-path="url(#d)"><path fill="url(#e)" d="M64 26c4.969 0 9-4.031 9-9v-4c0-4.969-4.031-9-9-9s-9 4.031-9 9v4c0 4.969 4.031 9 9 9zm0 0"/><path fill="#f8e45c" d="M73 13c0 4.969-4.031 9-9 9s-9-4.031-9-9 4.031-9 9-9 9 4.031 9 9zm0 0"/><path fill="url(#f)" d="m9.5 49.71 47.121 70.36c3.508 5.239 11.238 5.239 14.746.004l47.13-70.363A8.706 8.706 0 0 0 120 45v-7c0-5.523-4.477-10-10-10H18c-5.523 0-10 4.477-10 10v7c.027 1.59.5 3.215 1.5 4.71zm0 0"/><path fill-opacity=".051" d="m9.5 49.71 47.121 70.36c3.508 5.239 11.238 5.239 14.746.004l47.13-70.363A8.706 8.706 0 0 0 120 45v-7c0-5.523-4.477-10-10-10H18c-5.523 0-10 4.477-10 10v7c.027 1.59.5 3.215 1.5 4.71zm0 0"/><path fill="url(#g)" d="m9.504 41.71 47.117 70.36c3.508 5.239 11.238 5.239 14.746.004l47.13-70.363c3.925-5.86-.294-13.711-7.372-13.711h-94.25c-7.078 0-11.297 7.852-7.371 13.71zm0 0"/><path fill="#9141ac" d="m36 56 9.3-8.73c10.329-9.692 27.071-9.692 37.4 0L92 56l-9.3 8.73c-10.329 9.692-27.071 9.692-37.4 0zm0 0"/><path fill="url(#h)" d="M45.3 47.27 36 56l2.129 2 7.172-6.73c10.328-9.692 27.07-9.692 37.398 0L89.871 58 92 56l-9.3-8.73c-10.329-9.692-27.071-9.692-37.4 0zm0 0"/><path fill="url(#i)" d="M64 68a8 8 0 0 0 8-8v-4a8 8 0 0 0-16 0v4a8 8 0 0 0 8 8zm0 0"/><path fill="#fff" d="M72 56a8 8 0 1 1-16 0 8 8 0 0 1 16 0zm0 0"/></g></g></g></mask><mask id="l"><g filter="url(#b)"><path fill-opacity=".8" d="M-28.16-28.16h184.32v184.32H-28.16z"/></g></mask><linearGradient id="n" x1="300" x2="428" y1="235" y2="235" gradientTransform="matrix(0 .37 -.98462 0 295.385 -30.36)" gradientUnits="userSpaceOnUse"><stop offset="0" stop-color="#f9f06b"/><stop offset="1" stop-color="#f5c211"/></linearGradient><clipPath id="m"><path d="M0 0h128v128H0z"/></clipPath><clipPath id="k"><path d="M0 0h128v128H0z"/></clipPath><path fill="url(#e)" d="M64 26c4.969 0 9-4.031 9-9v-4c0-4.969-4.031-9-9-9s-9 4.031-9 9v4c0 4.969 4.031 9 9 9zm0 0"/><path fill="#f8e45c" d="M73 13c0 4.969-4.031 9-9 9s-9-4.031-9-9 4.031-9 9-9 9 4.031 9 9zm0 0"/><path fill="url(#f)" d="m9.5 49.71 47.121 70.36c3.508 5.239 11.238 5.239 14.746.004l47.13-70.363A8.706 8.706 0 0 0 120 45v-7c0-5.523-4.477-10-10-10H18c-5.523 0-10 4.477-10 10v7c.027 1.59.5 3.215 1.5 4.71zm0 0"/><path fill-opacity=".051" d="m9.5 49.71 47.121 70.36c3.508 5.239 11.238 5.239 14.746.004l47.13-70.363A8.706 8.706 0 0 0 120 45v-7c0-5.523-4.477-10-10-10H18c-5.523 0-10 4.477-10 10v7c.027 1.59.5 3.215 1.5 4.71zm0 0"/><path fill="url(#g)" d="m9.504 41.71 47.117 70.36c3.508 5.239 11.238 5.239 14.746.004l47.13-70.363c3.925-5.86-.294-13.711-7.372-13.711h-94.25c-7.078 0-11.297 7.852-7.371 13.71zm0 0"/><path fill="#9141ac" d="m36 56 9.3-8.73c10.329-9.692 27.071-9.692 37.4 0L92 56l-9.3 8.73c-10.329 9.692-27.071 9.692-37.4 0zm0 0"/><path fill="url(#h)" d="M45.3 47.27 36 56l2.129 2 7.172-6.73c10.328-9.692 27.07-9.692 37.398 0L89.871 58 92 56l-9.3-8.73c-10.329-9.692-27.071-9.692-37.4 0zm0 0"/><path fill="url(#i)" d="M64 68a8 8 0 0 0 8-8v-4a8 8 0 0 0-16 0v4a8 8 0 0 0 8 8zm0 0"/><path fill="#fff" d="M72 56a8 8 0 1 1-16 0 8 8 0 0 1 16 0zm0 0"/><g clip-path="url(#k)" mask="url(#j)"><g clip-path="url(#m)" mask="url(#l)"><path fill="url(#n)" d="M128 80.64V128H0V80.64zm0 0"/><path d="M13.309 80.64 60.664 128H81.88l-47.36-47.36zm42.421 0L103.094 128h21.215L76.945 80.64zm42.43 0L128 110.48V89.27l-8.629-8.63zM0 88.548v21.215L18.238 128h21.215zm0 0"/></g></g></svg>