<svg width="128" height="128" viewBox="0 0 128 128" fill="none" xmlns="http://www.w3.org/2000/svg">
<path d="M64 124C95.4802 124 121 98.4802 121 67C121 35.5198 95.4802 10 64 10C32.5198 10 7 35.5198 7 67C7 98.4802 32.5198 124 64 124Z" fill="url(#paint0_linear_563_1445)"/>
<path d="M64 124C95.4802 124 121 98.4802 121 67C121 35.5198 95.4802 10 64 10C32.5198 10 7 35.5198 7 67C7 98.4802 32.5198 124 64 124Z" fill="black" fill-opacity="0.05"/>
<path d="M64 118C95.4802 118 121 92.4802 121 61C121 29.5198 95.4802 4 64 4C32.5198 4 7 29.5198 7 61C7 92.4802 32.5198 118 64 118Z" fill="url(#paint1_linear_563_1445)"/>
<g filter="url(#filter0_i_563_1445)">
<path fill-rule="evenodd" clip-rule="evenodd" d="M64 111C91.6142 111 114 88.6142 114 61C114 33.3858 91.6142 11 64 11C36.3858 11 14 33.3858 14 61C14 88.6142 36.3858 111 64 111ZM64 113C92.7188 113 116 89.7188 116 61C116 32.2812 92.7188 9 64 9C35.2812 9 12 32.2812 12 61C12 89.7188 35.2812 113 64 113Z" fill="#B5835A"/>
<path fill-rule="evenodd" clip-rule="evenodd" d="M64 111C91.6142 111 114 88.6142 114 61C114 33.3858 91.6142 11 64 11C36.3858 11 14 33.3858 14 61C14 88.6142 36.3858 111 64 111ZM64 113C92.7188 113 116 89.7188 116 61C116 32.2812 92.7188 9 64 9C35.2812 9 12 32.2812 12 61C12 89.7188 35.2812 113 64 113Z" fill="#C0BFBC"/>
</g>
<g filter="url(#filter1_i_563_1445)">
<mask id="mask0_563_1445" style="mask-type:alpha" maskUnits="userSpaceOnUse" x="36" y="33" width="56" height="56">
<path d="M40 51C37.7909 51 36 49.2091 36 47V37C36 34.7909 37.7909 33 40 33H88C90.2091 33 92 34.7909 92 37V47C92 49.2091 90.2091 51 88 51H40Z" fill="#D9D9D9"/>
<path d="M73 85C73 87.2091 71.2091 89 69 89H59C56.7909 89 55 87.2091 55 85V37C55 34.7909 56.7909 33 59 33H69C71.2091 33 73 34.7909 73 37V85Z" fill="#D9D9D9"/>
</mask>
<g mask="url(#mask0_563_1445)">
<rect x="32" y="89" width="64" height="8" transform="rotate(-90 32 89)" fill="#C0BFBC"/>
<rect x="42" y="89" width="64" height="2" transform="rotate(-90 42 89)" fill="#C0BFBC"/>
<rect x="46" y="89" width="64" height="2" transform="rotate(-90 46 89)" fill="#C0BFBC"/>
<rect x="50" y="89" width="64" height="4" transform="rotate(-90 50 89)" fill="#C0BFBC"/>
<rect x="86" y="89" width="64" height="4" transform="rotate(-90 86 89)" fill="#C0BFBC"/>
<rect x="54" y="89" width="64" height="42" transform="rotate(-90 54 89)" fill="#C0BFBC"/>
</g>
</g>
<defs>
<filter id="filter0_i_563_1445" x="12" y="9" width="104" height="104" filterUnits="userSpaceOnUse" color-interpolation-filters="sRGB">
<feFlood flood-opacity="0" result="BackgroundImageFix"/>
<feBlend mode="normal" in="SourceGraphic" in2="BackgroundImageFix" result="shape"/>
<feColorMatrix in="SourceAlpha" type="matrix" values="0 0 0 0 0 0 0 0 0 0 0 0 0 0 0 0 0 0 127 0" result="hardAlpha"/>
<feOffset dy="1"/>
<feComposite in2="hardAlpha" operator="arithmetic" k2="-1" k3="1"/>
<feColorMatrix type="matrix" values="0 0 0 0 0 0 0 0 0 0 0 0 0 0 0 0 0 0 0.25 0"/>
<feBlend mode="normal" in2="shape" result="effect1_innerShadow_563_1445"/>
</filter>
<filter id="filter1_i_563_1445" x="36" y="33" width="56" height="56" filterUnits="userSpaceOnUse" color-interpolation-filters="sRGB">
<feFlood flood-opacity="0" result="BackgroundImageFix"/>
<feBlend mode="normal" in="SourceGraphic" in2="BackgroundImageFix" result="shape"/>
<feColorMatrix in="SourceAlpha" type="matrix" values="0 0 0 0 0 0 0 0 0 0 0 0 0 0 0 0 0 0 127 0" result="hardAlpha"/>
<feOffset dy="1"/>
<feComposite in2="hardAlpha" operator="arithmetic" k2="-1" k3="1"/>
<feColorMatrix type="matrix" values="0 0 0 0 0 0 0 0 0 0 0 0 0 0 0 0 0 0 0.25 0"/>
<feBlend mode="normal" in2="shape" result="effect1_innerShadow_563_1445"/>
</filter>
<linearGradient id="paint0_linear_563_1445" x1="6.99999" y1="124" x2="121" y2="124" gradientUnits="userSpaceOnUse">
<stop stop-color="#9B7E00"/>
<stop offset="0.166667" stop-color="#C09E0B"/>
<stop offset="0.333333" stop-color="#C09E0B"/>
<stop offset="0.5" stop-color="#E9C012"/>
<stop offset="0.666667" stop-color="#C09E0B"/>
<stop offset="0.833333" stop-color="#C09E0B"/>
<stop offset="1" stop-color="#9B7E00"/>
</linearGradient>
<linearGradient id="paint1_linear_563_1445" x1="64" y1="4" x2="60.9097" y2="117.916" gradientUnits="userSpaceOnUse">
<stop stop-color="#F8E45C"/>
<stop offset="1" stop-color="#F6D32D"/>
</linearGradient>
</defs>
</svg>
