<svg width="128" height="128" viewBox="0 0 128 128" fill="none" xmlns="http://www.w3.org/2000/svg">
<path d="M121 67C121 98.4802 95.4802 124 64 124C32.5198 124 7 98.4802 7 67M121 61C121 92.4802 95.4802 118 64 118C32.5198 118 7 92.4802 7 61C7 29.5198 32.5198 4 64 4C95.4802 4 121 29.5198 121 61Z" stroke="#808080" stroke-width="4" stroke-linejoin="round"/>
<path d="M64 102C87.196 102 106 83.196 106 60C106 36.804 87.196 18 64 18M64 102V18M64 102C61.2644 102 58.5898 101.738 56 101.239M64 18C61.2644 18 58.5898 18.2615 56 18.761M40 25.5281C29.1191 33.1178 22 45.7275 22 60C22 74.2725 29.1191 86.8822 40 94.4719M40 25.5281C42.4839 23.7955 45.1639 22.3245 48 21.1551M40 25.5281V94.4719M48 21.1551C50.5501 20.1036 53.2265 19.2959 56 18.761M48 21.1551V98.8449M56 18.761V101.239M56 101.239C53.2265 100.704 50.5501 99.8964 48 98.8449M48 98.8449C45.1639 97.6755 42.4839 96.2045 40 94.4719" stroke="#808080" stroke-width="4"/>
</svg>
